<?xml version="1.0"?>
<svg xmlns="http://www.w3.org/2000/svg" height="512px" viewBox="-27 -27 860.00001 860.00001" width="512px"><path d="m403.207031 806.332031c-222.285156 0-403.1249998-180.839843-403.1249998-403.125 0-222.285156 180.8398438-403.1249998 403.1249998-403.1249998 222.285157 0 403.125 180.8398438 403.125 403.1249998 0 222.285157-180.839843 403.125-403.125 403.125zm0-779.375c-207.464843 0-376.25 168.785157-376.25 376.25 0 207.46875 168.785157 376.25 376.25 376.25 207.46875 0 376.25-168.78125 376.25-376.25 0-207.464843-168.78125-376.25-376.25-376.25zm0 0" fill="#cccccc"/><path d="m604.769531 497.269531c-3.4375 0-6.875-1.3125-9.5-3.933593l-192.0625-192.066407-192.058593 192.066407c-5.25 5.25-13.753907 5.25-19.003907 0s-5.25-13.753907 0-19.003907l201.5625-201.5625c5.25-5.25 13.753907-5.25 19.003907 0l201.5625 201.5625c5.25 5.25 5.25 13.753907 0 19.003907-2.628907 2.621093-6.066407 3.933593-9.503907 3.933593zm0 0" fill="#cccccc"/></svg>
