<?xml version="1.0" encoding="UTF-8" standalone="no"?>
<!-- Generator: Adobe Illustrator 21.1.0, SVG Export Plug-In . SVG Version: 6.00 Build 0)  -->

<svg
   xmlns:dc="http://purl.org/dc/elements/1.1/"
   xmlns:cc="http://creativecommons.org/ns#"
   xmlns:rdf="http://www.w3.org/1999/02/22-rdf-syntax-ns#"
   xmlns:svg="http://www.w3.org/2000/svg"
   xmlns="http://www.w3.org/2000/svg"
   xmlns:sodipodi="http://sodipodi.sourceforge.net/DTD/sodipodi-0.dtd"
   xmlns:inkscape="http://www.inkscape.org/namespaces/inkscape"
   version="1.1"
   id="Capa_1"
   x="0px"
   y="0px"
   viewBox="0 0 512 512"
   style="enable-background:new 0 0 512 512;"
   xml:space="preserve"
   sodipodi:docname="instagram.svg"
   inkscape:version="0.92.2 (5c3e80d, 2017-08-06)"><metadata
     id="metadata27"><rdf:RDF><cc:Work
         rdf:about=""><dc:format>image/svg+xml</dc:format><dc:type
           rdf:resource="http://purl.org/dc/dcmitype/StillImage" /><dc:title></dc:title></cc:Work></rdf:RDF></metadata><defs
     id="defs25" /><sodipodi:namedview
     pagecolor="#ffffff"
     bordercolor="#666666"
     borderopacity="1"
     objecttolerance="10"
     gridtolerance="10"
     guidetolerance="10"
     inkscape:pageopacity="0"
     inkscape:pageshadow="2"
     inkscape:window-width="1920"
     inkscape:window-height="1005"
     id="namedview23"
     showgrid="false"
     inkscape:zoom="0.4609375"
     inkscape:cx="256"
     inkscape:cy="256"
     inkscape:window-x="-9"
     inkscape:window-y="-9"
     inkscape:window-maximized="1"
     inkscape:current-layer="Capa_1" /><style
     type="text/css"
     id="style2">
	.st0{fill:#5CA3CF;}
</style><g
     id="g8"><g
       id="g6"><path
         class="st0"
         d="M352,0H160C71.6,0,0,71.6,0,160v192c0,88.4,71.6,160,160,160h192c88.4,0,160-71.6,160-160V160    C512,71.6,440.4,0,352,0z M464,352c0,61.8-50.2,112-112,112H160c-61.8,0-112-50.2-112-112V160C48,98.2,98.2,48,160,48h192    c61.8,0,112,50.2,112,112V352z"
         id="path4" /></g></g><g
     id="g14"><g
       id="g12"><path
         class="st0"
         d="M256,128c-70.7,0-128,57.3-128,128s57.3,128,128,128s128-57.3,128-128S326.7,128,256,128z M256,336    c-44.1,0-80-35.9-80-80c0-44.1,35.9-80,80-80s80,35.9,80,80C336,300.1,300.1,336,256,336z"
         id="path10" /></g></g><g
     id="g20"><g
       id="g18"><circle
         class="st0"
         cx="393.6"
         cy="118.4"
         r="17.1"
         id="circle16" /></g></g></svg>